<svg width="97" height="97" viewBox="0 0 97 97" fill="none" xmlns="http://www.w3.org/2000/svg">
<ellipse cx="48.4438" cy="76.3743" rx="37.9936" ry="18.7449" fill="#351303"/>
<ellipse cx="48.645" cy="46.0403" rx="44.645" ry="44.0403" fill="#401B0A"/>
<path fill-rule="evenodd" clip-rule="evenodd" d="M4.90293 54.8962C4.31088 52.0354 4 49.0737 4 46.0403C4 21.7175 23.9883 2 48.645 2C73.3018 2 93.29 21.7175 93.29 46.0403C93.29 48.7216 93.0471 51.347 92.5818 53.8961C85.3456 69.9111 68.3372 81.1555 48.5086 81.1555C29.0954 81.1555 12.3855 70.3772 4.90293 54.8962Z" fill="#59250C"/>
<path fill-rule="evenodd" clip-rule="evenodd" d="M48.6454 43.1176C63.2837 43.1176 75.1503 32.2888 75.1503 18.9307C75.1503 15.3964 74.3196 12.0392 72.8266 9.01271C65.8583 4.57536 57.557 2 48.646 2C39.7343 2 31.4325 4.57572 24.4638 9.01366C22.9712 12.0399 22.1406 15.3968 22.1406 18.9307C22.1406 32.2888 34.0072 43.1176 48.6454 43.1176Z" fill="#782E0C"/>
<mask id="path-5-inside-1_254_207" fill="white">
<path fill-rule="evenodd" clip-rule="evenodd" d="M84.9627 22.1468C85.3641 21.8981 85.6316 21.4535 85.6316 20.9465C85.6316 20.1673 84.9999 19.5356 84.2207 19.5356C83.8309 19.5356 83.4781 19.6937 83.2228 19.9491C83.1966 19.9645 83.1693 19.9807 83.1409 19.9976C82.8244 20.186 82.3722 20.4657 81.8125 20.8402C80.6935 21.589 79.1421 22.7182 77.3836 24.256C73.869 27.3297 69.5096 32.0514 66.1345 38.6457C62.7606 45.2378 61.1425 52.4372 60.3625 57.9491C59.9714 60.7127 59.7884 63.0701 59.7032 64.7405C59.6606 65.576 59.6424 66.2407 59.6349 66.6995C59.6311 66.9289 59.63 67.1069 59.6299 67.2292C59.6298 67.2903 59.63 67.3375 59.6302 67.3702L59.6304 67.3922L59.6305 67.4084L59.6306 67.4192L59.6307 67.4236C59.6307 67.4237 59.6307 67.4237 59.6334 67.4238C59.6318 67.4511 59.631 67.4786 59.631 67.5063C59.631 68.2856 60.2627 68.9172 61.0419 68.9172C61.8211 68.9172 62.4528 68.2856 62.4528 67.5063C62.4528 67.4664 62.4512 67.4268 62.4479 67.3877L62.4523 67.3877L62.4522 67.3869L62.4522 67.381L62.452 67.3528C62.4518 67.3267 62.4516 67.2864 62.4517 67.2322C62.4518 67.1238 62.4528 66.9602 62.4563 66.7458C62.4633 66.3168 62.4805 65.6848 62.5214 64.8842C62.6031 63.2824 62.7791 61.0104 63.1564 58.3445C63.9132 52.9975 65.4696 46.1382 68.6464 39.9314C71.822 33.7268 75.9281 29.2776 79.2413 26.3801C80.8967 24.9324 82.3497 23.876 83.3817 23.1855C83.8975 22.8404 84.3075 22.5871 84.5842 22.4224C84.7225 22.34 84.8275 22.2799 84.8956 22.2415C84.9297 22.2223 84.9545 22.2086 84.9697 22.2003L84.9852 22.1918L84.9867 22.191C84.9866 22.1911 84.9865 22.1911 84.9627 22.1468Z"/>
</mask>
<path fill-rule="evenodd" clip-rule="evenodd" d="M84.9627 22.1468C85.3641 21.8981 85.6316 21.4535 85.6316 20.9465C85.6316 20.1673 84.9999 19.5356 84.2207 19.5356C83.8309 19.5356 83.4781 19.6937 83.2228 19.9491C83.1966 19.9645 83.1693 19.9807 83.1409 19.9976C82.8244 20.186 82.3722 20.4657 81.8125 20.8402C80.6935 21.589 79.1421 22.7182 77.3836 24.256C73.869 27.3297 69.5096 32.0514 66.1345 38.6457C62.7606 45.2378 61.1425 52.4372 60.3625 57.9491C59.9714 60.7127 59.7884 63.0701 59.7032 64.7405C59.6606 65.576 59.6424 66.2407 59.6349 66.6995C59.6311 66.9289 59.63 67.1069 59.6299 67.2292C59.6298 67.2903 59.63 67.3375 59.6302 67.3702L59.6304 67.3922L59.6305 67.4084L59.6306 67.4192L59.6307 67.4236C59.6307 67.4237 59.6307 67.4237 59.6334 67.4238C59.6318 67.4511 59.631 67.4786 59.631 67.5063C59.631 68.2856 60.2627 68.9172 61.0419 68.9172C61.8211 68.9172 62.4528 68.2856 62.4528 67.5063C62.4528 67.4664 62.4512 67.4268 62.4479 67.3877L62.4523 67.3877L62.4522 67.3869L62.4522 67.381L62.452 67.3528C62.4518 67.3267 62.4516 67.2864 62.4517 67.2322C62.4518 67.1238 62.4528 66.9602 62.4563 66.7458C62.4633 66.3168 62.4805 65.6848 62.5214 64.8842C62.6031 63.2824 62.7791 61.0104 63.1564 58.3445C63.9132 52.9975 65.4696 46.1382 68.6464 39.9314C71.822 33.7268 75.9281 29.2776 79.2413 26.3801C80.8967 24.9324 82.3497 23.876 83.3817 23.1855C83.8975 22.8404 84.3075 22.5871 84.5842 22.4224C84.7225 22.34 84.8275 22.2799 84.8956 22.2415C84.9297 22.2223 84.9545 22.2086 84.9697 22.2003L84.9852 22.1918L84.9867 22.191C84.9866 22.1911 84.9865 22.1911 84.9627 22.1468Z" fill="#FFFADD"/>
<path d="M84.9627 22.1468L84.436 21.2967L83.6369 21.7918L84.0817 22.62L84.9627 22.1468ZM83.2228 19.9491L83.7305 20.8107L83.8401 20.7461L83.93 20.6561L83.2228 19.9491ZM83.1409 19.9976L82.6294 19.1383L82.6294 19.1383L83.1409 19.9976ZM81.8125 20.8402L82.3686 21.6714L82.3686 21.6714L81.8125 20.8402ZM77.3836 24.256L76.7253 23.5033L76.7253 23.5033L77.3836 24.256ZM66.1345 38.6457L67.0247 39.1013L67.0247 39.1013L66.1345 38.6457ZM60.3625 57.9491L61.3526 58.0892L61.3526 58.0892L60.3625 57.9491ZM59.7032 64.7405L60.7019 64.7914L60.7019 64.7914L59.7032 64.7405ZM59.6349 66.6995L60.6347 66.7159L60.6347 66.7159L59.6349 66.6995ZM59.6299 67.2292L60.6299 67.2302L60.6299 67.2302L59.6299 67.2292ZM59.6302 67.3702L58.6302 67.3764L58.6302 67.3773L59.6302 67.3702ZM59.6304 67.3922L58.6304 67.3993L58.6304 67.401L59.6304 67.3922ZM59.6305 67.4084L58.6305 67.4172L58.6306 67.4189L59.6305 67.4084ZM59.6306 67.4192L58.6307 67.4297L58.6307 67.4312L59.6306 67.4192ZM59.6307 67.4236L58.6307 67.4357L58.6308 67.4362L59.6307 67.4236ZM59.6334 67.4238L60.6317 67.4814L60.6924 66.4297L59.639 66.4238L59.6334 67.4238ZM62.4479 67.3877L62.454 66.3877L61.3606 66.381L61.4514 67.4707L62.4479 67.3877ZM62.4523 67.3877L62.4461 68.3877L63.4641 68.3939L63.4522 67.376L62.4523 67.3877ZM62.4522 67.3869L61.4523 67.3974L61.4523 67.3986L62.4522 67.3869ZM62.4522 67.381L61.4522 67.3887L61.4522 67.3914L62.4522 67.381ZM62.452 67.3528L61.452 67.359L61.452 67.3605L62.452 67.3528ZM62.4517 67.2322L63.4517 67.2332L63.4517 67.2332L62.4517 67.2322ZM62.4563 66.7458L61.4564 66.7294L61.4564 66.7294L62.4563 66.7458ZM62.5214 64.8842L61.5227 64.8333L61.5227 64.8333L62.5214 64.8842ZM63.1564 58.3445L64.1466 58.4846L64.1466 58.4846L63.1564 58.3445ZM68.6464 39.9314L67.7563 39.4758L67.7563 39.4758L68.6464 39.9314ZM79.2413 26.3801L78.5829 25.6274L78.5829 25.6274L79.2413 26.3801ZM83.3817 23.1855L83.9378 24.0166L83.9378 24.0166L83.3817 23.1855ZM84.5842 22.4224L84.0727 21.5631L84.0727 21.5631L84.5842 22.4224ZM84.8956 22.2415L85.3864 23.1128L85.3864 23.1128L84.8956 22.2415ZM84.9697 22.2003L84.491 21.3223L84.4889 21.3234L84.9697 22.2003ZM84.9852 22.1918L84.5088 21.3126L84.5065 21.3138L84.9852 22.1918ZM84.9867 22.191L85.4632 23.0702L84.519 21.3071L84.9867 22.191ZM84.6316 20.9465C84.6316 21.0931 84.5555 21.2227 84.436 21.2967L85.4893 22.9969C86.1727 22.5735 86.6316 21.814 86.6316 20.9465H84.6316ZM84.2207 20.5356C84.4476 20.5356 84.6316 20.7196 84.6316 20.9465H86.6316C86.6316 19.615 85.5522 18.5356 84.2207 18.5356V20.5356ZM83.93 20.6561C84.0055 20.5806 84.1069 20.5356 84.2207 20.5356V18.5356C83.555 18.5356 82.9507 18.8068 82.5155 19.2422L83.93 20.6561ZM82.7151 19.0876C82.6877 19.1037 82.6591 19.1206 82.6294 19.1383L83.6524 20.8569C83.6795 20.8408 83.7055 20.8254 83.7305 20.8107L82.7151 19.0876ZM82.6294 19.1383C82.2988 19.3351 81.8317 19.6242 81.2564 20.0091L82.3686 21.6714C82.9128 21.3073 83.35 21.0369 83.6524 20.8569L82.6294 19.1383ZM81.2564 20.0091C80.1066 20.7785 78.5202 21.9336 76.7253 23.5033L78.0419 25.0088C79.7639 23.5029 81.2804 22.3995 82.3686 21.6714L81.2564 20.0091ZM76.7253 23.5033C73.1392 26.6395 68.6901 31.4577 65.2443 38.1901L67.0247 39.1013C70.3291 32.6451 74.5987 28.02 78.0419 25.0088L76.7253 23.5033ZM65.2443 38.1901C61.8005 44.9187 60.1607 52.2386 59.3723 57.8089L61.3526 58.0892C62.1244 52.6358 63.7206 45.5569 67.0247 39.1013L65.2443 38.1901ZM59.3723 57.8089C58.9763 60.6071 58.791 62.9949 58.7045 64.6896L60.7019 64.7914C60.7859 63.1454 60.9664 60.8182 61.3526 58.0892L59.3723 57.8089ZM58.7045 64.6896C58.6613 65.5375 58.6427 66.2137 58.635 66.6831L60.6347 66.7159C60.6421 66.2677 60.66 65.6146 60.7019 64.7914L58.7045 64.6896ZM58.635 66.6831C58.6312 66.9178 58.63 67.101 58.6299 67.2281L60.6299 67.2302C60.63 67.1129 60.6311 66.94 60.6347 66.7159L58.635 66.6831ZM58.6299 67.2281C58.6298 67.2917 58.63 67.3413 58.6302 67.3764L60.6302 67.364C60.63 67.3337 60.6298 67.2889 60.6299 67.2302L58.6299 67.2281ZM58.6302 67.3773L58.6304 67.3993L60.6303 67.3852L60.6302 67.3632L58.6302 67.3773ZM58.6304 67.401L58.6305 67.4172L60.6305 67.3996L60.6303 67.3834L58.6304 67.401ZM58.6306 67.4189L58.6307 67.4297L60.6306 67.4087L60.6305 67.3979L58.6306 67.4189ZM58.6307 67.4312L58.6307 67.4357L60.6306 67.4116L60.6305 67.4072L58.6307 67.4312ZM58.6308 67.4362C58.6308 67.4362 58.6308 67.4363 58.6308 67.4364C58.6308 67.4365 58.6308 67.4368 58.6308 67.437C58.6308 67.4375 58.6308 67.4383 58.6308 67.4393C58.6308 67.4413 58.6309 67.4446 58.631 67.4487C58.6312 67.4566 58.6316 67.4698 58.6326 67.4861C58.6346 67.5184 58.6394 67.5703 58.6528 67.6328C58.6826 67.7722 58.7467 67.9244 58.8615 68.0626C59.0599 68.3015 59.3048 68.3703 59.3517 68.384C59.4292 68.4065 59.4919 68.4142 59.511 68.4165C59.5378 68.4197 59.5591 68.4212 59.5695 68.4218C59.5906 68.4231 59.6072 68.4234 59.6119 68.4235C59.6189 68.4237 59.6246 68.4237 59.6278 68.4237L59.639 66.4238C59.6408 66.4238 59.6455 66.4238 59.6518 66.4239C59.6557 66.424 59.6718 66.4243 59.6925 66.4256C59.7028 66.4262 59.724 66.4277 59.7506 66.4309C59.7696 66.4332 59.8323 66.4409 59.9097 66.4634C59.9566 66.477 60.2015 66.5458 60.3999 66.7847C60.5147 66.9229 60.5787 67.0751 60.6086 67.2145C60.6219 67.277 60.6267 67.3289 60.6287 67.3612C60.6297 67.3775 60.6302 67.3906 60.6304 67.3986C60.6305 67.4027 60.6305 67.406 60.6306 67.408C60.6306 67.409 60.6306 67.4098 60.6306 67.4103C60.6306 67.4105 60.6306 67.4108 60.6306 67.4109C60.6306 67.411 60.6306 67.4111 60.6306 67.4111L58.6308 67.4362ZM58.6351 67.3661C58.6324 67.4126 58.631 67.4594 58.631 67.5063H60.631C60.631 67.4978 60.6313 67.4895 60.6317 67.4814L58.6351 67.3661ZM58.631 67.5063C58.631 68.8378 59.7104 69.9172 61.0419 69.9172V67.9172C60.815 67.9172 60.631 67.7333 60.631 67.5063H58.631ZM61.0419 69.9172C62.3734 69.9172 63.4528 68.8378 63.4528 67.5063H61.4528C61.4528 67.7333 61.2689 67.9172 61.0419 67.9172V69.9172ZM63.4528 67.5063C63.4528 67.4386 63.45 67.3713 63.4445 67.3047L61.4514 67.4707C61.4523 67.4823 61.4528 67.4942 61.4528 67.5063H63.4528ZM62.4418 68.3876L62.4461 68.3877L62.4584 66.3877L62.454 66.3877L62.4418 68.3876ZM63.4522 67.376L63.4522 67.3752L61.4523 67.3986L61.4523 67.3994L63.4522 67.376ZM63.4522 67.3764L63.4521 67.3705L61.4522 67.3914L61.4523 67.3974L63.4522 67.3764ZM63.4522 67.3733L63.4519 67.3451L61.452 67.3605L61.4522 67.3887L63.4522 67.3733ZM63.4519 67.3466C63.4518 67.3229 63.4516 67.285 63.4517 67.2332L61.4517 67.2311C61.4516 67.2878 61.4518 67.3306 61.452 67.359L63.4519 67.3466ZM63.4517 67.2332C63.4518 67.1298 63.4527 66.9713 63.4562 66.7622L61.4564 66.7294C61.4528 66.9491 61.4518 67.1178 61.4517 67.2311L63.4517 67.2332ZM63.4562 66.7622C63.463 66.3438 63.4799 65.7233 63.5201 64.9352L61.5227 64.8333C61.4812 65.6462 61.4636 66.2898 61.4564 66.7294L63.4562 66.7622ZM63.5201 64.9352C63.6005 63.3577 63.7742 61.1159 64.1466 58.4846L62.1663 58.2044C61.7841 60.9049 61.6056 63.2072 61.5227 64.8333L63.5201 64.9352ZM64.1466 58.4846C64.8951 53.196 66.4297 46.4573 69.5366 40.387L67.7563 39.4758C64.5096 45.8191 62.9313 52.7989 62.1663 58.2044L64.1466 58.4846ZM69.5366 40.387C72.6415 34.3205 76.6579 29.9679 79.8996 27.1329L78.5829 25.6274C75.1984 28.5873 71.0026 33.1331 67.7563 39.4758L69.5366 40.387ZM79.8996 27.1329C81.5185 25.717 82.9367 24.6865 83.9378 24.0166L82.8256 22.3544C81.7628 23.0655 80.2749 24.1477 78.5829 25.6274L79.8996 27.1329ZM83.9378 24.0166C84.4381 23.6819 84.8331 23.438 85.0957 23.2817L84.0727 21.5631C83.7819 21.7362 83.357 21.9988 82.8256 22.3544L83.9378 24.0166ZM85.0957 23.2817C85.2269 23.2035 85.325 23.1474 85.3864 23.1128L84.4048 21.3702C84.33 21.4124 84.2181 21.4765 84.0727 21.5631L85.0957 23.2817ZM85.3864 23.1128C85.417 23.0955 85.4386 23.0836 85.4505 23.0771L84.4889 21.3234C84.4705 21.3335 84.4423 21.3491 84.4048 21.3702L85.3864 23.1128ZM85.4484 23.0782L85.4639 23.0698L84.5065 21.3138L84.491 21.3223L85.4484 23.0782ZM85.4617 23.071L85.4632 23.0702L84.5102 21.3118L84.5088 21.3126L85.4617 23.071ZM84.519 21.3071C84.4967 21.3189 84.6518 21.2258 84.8592 21.1992C85.1075 21.1673 85.3175 21.2331 85.4623 21.3114C85.5862 21.3784 85.6664 21.4561 85.6998 21.49C85.7386 21.5294 85.7659 21.5639 85.7798 21.582C85.8074 21.6179 85.8262 21.6477 85.8316 21.6561C85.8394 21.6685 85.8453 21.6784 85.8481 21.6832C85.8537 21.6928 85.8578 21.7002 85.8586 21.7016C85.8594 21.7029 85.8599 21.7039 85.8603 21.7045C85.8606 21.7051 85.8608 21.7054 85.8608 21.7055C85.8608 21.7055 85.8605 21.705 85.8597 21.7035C85.859 21.7021 85.8579 21.7002 85.8565 21.6975C85.8535 21.6921 85.8494 21.6844 85.8436 21.6737L84.0817 22.62C84.0933 22.6417 84.1011 22.6561 84.1063 22.6656C84.1069 22.6666 84.1149 22.6814 84.1244 22.6975C84.1274 22.7026 84.1334 22.7128 84.1414 22.7253C84.1468 22.734 84.1658 22.7639 84.1934 22.7999C84.2073 22.818 84.2347 22.8525 84.2735 22.892C84.3068 22.9259 84.3871 23.0036 84.511 23.0706C84.6558 23.1489 84.8658 23.2148 85.1141 23.1829C85.3216 23.1562 85.4767 23.0631 85.4544 23.0749L84.519 21.3071Z" fill="#FFFADD" mask="url(#path-5-inside-1_254_207)"/>
<mask id="path-7-inside-2_254_207" fill="white">
<path fill-rule="evenodd" clip-rule="evenodd" d="M18.7274 14.846C18.8992 14.5645 18.9736 14.2219 18.9131 13.8714C18.7805 13.1035 18.0505 12.5886 17.2827 12.7212C16.7828 12.8075 16.3901 13.1469 16.2135 13.5852C16.1915 13.5766 16.1914 13.5767 16.1914 13.5767L16.1904 13.5793L16.188 13.5854L16.1798 13.6064L16.1502 13.6835C16.1247 13.7502 16.0879 13.8473 16.0413 13.9733C15.948 14.2252 15.8152 14.5926 15.6535 15.0626C15.3303 16.0024 14.8915 17.354 14.4242 19.0145C13.4908 22.3307 12.4366 26.9026 11.9679 31.9002C11.4996 36.8932 11.6612 41.5032 11.9382 44.8606C12.0768 46.5414 12.2448 47.9135 12.3789 48.8691C12.4459 49.347 12.5044 49.7211 12.5467 49.9779C12.5678 50.1063 12.5848 50.2055 12.5968 50.2737L12.6108 50.3525L12.6147 50.3741L12.6164 50.3831L12.6196 50.3826C12.6227 50.41 12.6266 50.4375 12.6313 50.465C12.7639 51.2328 13.4939 51.7478 14.2617 51.6152C15.0296 51.4826 15.5446 50.7526 15.412 49.9848C15.4052 49.9453 15.3968 49.9064 15.3868 49.8683L15.3907 49.8676L15.3902 49.8648L15.3876 49.8503L15.3761 49.7858C15.3658 49.7274 15.3505 49.6383 15.3311 49.5201C15.2923 49.2839 15.2371 48.9318 15.1733 48.4772C15.0458 47.5677 14.8841 46.2493 14.7504 44.6286C14.4827 41.3831 14.3288 36.9463 14.7774 32.1637C15.2255 27.3857 16.2372 22.9883 17.1404 19.779C17.5914 18.1768 18.0137 16.8766 18.3219 15.9803C18.476 15.5323 18.6015 15.1856 18.6876 14.9529C18.702 14.9141 18.7152 14.8784 18.7274 14.846Z"/>
</mask>
<path fill-rule="evenodd" clip-rule="evenodd" d="M18.7274 14.846C18.8992 14.5645 18.9736 14.2219 18.9131 13.8714C18.7805 13.1035 18.0505 12.5886 17.2827 12.7212C16.7828 12.8075 16.3901 13.1469 16.2135 13.5852C16.1915 13.5766 16.1914 13.5767 16.1914 13.5767L16.1904 13.5793L16.188 13.5854L16.1798 13.6064L16.1502 13.6835C16.1247 13.7502 16.0879 13.8473 16.0413 13.9733C15.948 14.2252 15.8152 14.5926 15.6535 15.0626C15.3303 16.0024 14.8915 17.354 14.4242 19.0145C13.4908 22.3307 12.4366 26.9026 11.9679 31.9002C11.4996 36.8932 11.6612 41.5032 11.9382 44.8606C12.0768 46.5414 12.2448 47.9135 12.3789 48.8691C12.4459 49.347 12.5044 49.7211 12.5467 49.9779C12.5678 50.1063 12.5848 50.2055 12.5968 50.2737L12.6108 50.3525L12.6147 50.3741L12.6164 50.3831L12.6196 50.3826C12.6227 50.41 12.6266 50.4375 12.6313 50.465C12.7639 51.2328 13.4939 51.7478 14.2617 51.6152C15.0296 51.4826 15.5446 50.7526 15.412 49.9848C15.4052 49.9453 15.3968 49.9064 15.3868 49.8683L15.3907 49.8676L15.3902 49.8648L15.3876 49.8503L15.3761 49.7858C15.3658 49.7274 15.3505 49.6383 15.3311 49.5201C15.2923 49.2839 15.2371 48.9318 15.1733 48.4772C15.0458 47.5677 14.8841 46.2493 14.7504 44.6286C14.4827 41.3831 14.3288 36.9463 14.7774 32.1637C15.2255 27.3857 16.2372 22.9883 17.1404 19.779C17.5914 18.1768 18.0137 16.8766 18.3219 15.9803C18.476 15.5323 18.6015 15.1856 18.6876 14.9529C18.702 14.9141 18.7152 14.8784 18.7274 14.846Z" fill="#FFFADD"/>
<path d="M18.7274 14.846L17.8738 14.3251L17.8242 14.4063L17.7908 14.4955L18.7274 14.846ZM16.2135 13.5852L15.8496 14.5166L16.7711 14.8767L17.141 13.959L16.2135 13.5852ZM16.1914 13.5767L17.1221 13.9425L17.1227 13.941L16.1914 13.5767ZM16.1904 13.5793L15.2597 13.2135L15.2592 13.2148L16.1904 13.5793ZM16.188 13.5854L15.2568 13.2208L15.2562 13.2225L16.188 13.5854ZM16.1798 13.6064L15.248 13.2435L15.2466 13.2472L16.1798 13.6064ZM16.1502 13.6835L15.2169 13.3242L15.2161 13.3263L16.1502 13.6835ZM16.0413 13.9733L16.9791 14.3204L16.9791 14.3204L16.0413 13.9733ZM15.6535 15.0626L14.7079 14.7374L14.7079 14.7374L15.6535 15.0626ZM14.4242 19.0145L13.4616 18.7436L13.4616 18.7436L14.4242 19.0145ZM11.9679 31.9002L12.9635 31.9936L12.9635 31.9936L11.9679 31.9002ZM11.9382 44.8606L12.9348 44.7784L12.9348 44.7784L11.9382 44.8606ZM12.3789 48.8691L13.3692 48.7302L13.3692 48.7302L12.3789 48.8691ZM12.5467 49.9779L11.5599 50.1401L11.5599 50.1401L12.5467 49.9779ZM12.5968 50.2737L11.6118 50.4465L11.6122 50.4488L12.5968 50.2737ZM12.6108 50.3525L11.6263 50.5277L11.627 50.5316L12.6108 50.3525ZM12.6147 50.3741L11.6309 50.5532L11.6313 50.5555L12.6147 50.3741ZM12.6164 50.3831L11.633 50.5645L11.8085 51.5161L12.7654 51.372L12.6164 50.3831ZM12.6196 50.3826L13.6132 50.2699L13.4963 49.2393L12.4706 49.3938L12.6196 50.3826ZM15.3868 49.8683L15.2186 48.8826L14.145 49.0658L14.419 50.1199L15.3868 49.8683ZM15.3907 49.8676L15.559 50.8534L16.5576 50.6829L16.3742 49.6866L15.3907 49.8676ZM15.3902 49.8648L14.4064 50.0439L14.4067 50.0459L15.3902 49.8648ZM15.3876 49.8503L14.403 50.0254L14.4037 50.0293L15.3876 49.8503ZM15.3761 49.7858L14.3911 49.9587L14.3916 49.961L15.3761 49.7858ZM15.3311 49.5201L14.3443 49.6824L14.3443 49.6824L15.3311 49.5201ZM15.1733 48.4772L14.183 48.616L15.1733 48.4772ZM14.7504 44.6286L13.7538 44.7108L14.7504 44.6286ZM14.7774 32.1637L13.7817 32.0703L13.7817 32.0703L14.7774 32.1637ZM17.1404 19.779L18.103 20.0499L18.103 20.0499L17.1404 19.779ZM18.3219 15.9803L17.3763 15.6551L17.3763 15.6551L18.3219 15.9803ZM18.6876 14.9529L19.6254 15.3001L19.6254 15.3001L18.6876 14.9529ZM17.9277 14.0416C17.9454 14.1443 17.9242 14.2424 17.8738 14.3251L19.581 15.367C19.8741 14.8866 20.0018 14.2995 19.8985 13.7012L17.9277 14.0416ZM17.4528 13.7066C17.6764 13.668 17.889 13.8179 17.9277 14.0416L19.8985 13.7012C19.6719 12.3891 18.4246 11.5092 17.1125 11.7357L17.4528 13.7066ZM17.141 13.959C17.1935 13.8286 17.3084 13.7315 17.4528 13.7066L17.1125 11.7357C16.2573 11.8834 15.5867 12.4653 15.286 13.2113L17.141 13.959ZM16.5774 12.6537C16.5669 12.6497 16.5574 12.6459 16.5498 12.6431C16.5476 12.6422 16.5439 12.6408 16.5395 12.6392C16.5364 12.6381 16.5263 12.6343 16.5134 12.6299C16.5071 12.6278 16.4941 12.6234 16.4775 12.6185C16.4661 12.6151 16.4264 12.6033 16.3744 12.5936C16.348 12.5887 16.2977 12.5803 16.2338 12.5776C16.1762 12.5752 16.0537 12.5744 15.9065 12.6182C15.7331 12.6697 15.5535 12.7751 15.4136 12.9483C15.3007 13.0879 15.2511 13.2356 15.2601 13.2125L17.1227 13.941C17.1318 13.9179 17.0821 14.0655 16.9693 14.2052C16.8293 14.3784 16.6498 14.4837 16.4764 14.5352C16.3292 14.579 16.2067 14.5783 16.1491 14.5758C16.0852 14.5731 16.035 14.5648 16.0086 14.5598C15.9566 14.5502 15.9169 14.5384 15.9057 14.535C15.8892 14.5301 15.8763 14.5258 15.8701 14.5237C15.8576 14.5194 15.848 14.5159 15.8457 14.515C15.8421 14.5137 15.8394 14.5127 15.8386 14.5123C15.8365 14.5116 15.838 14.5121 15.8496 14.5166L16.5774 12.6537ZM15.2607 13.2109L15.2597 13.2135L17.1211 13.9451L17.1221 13.9425L15.2607 13.2109ZM15.2592 13.2148L15.2568 13.2208L17.1192 13.95L17.1216 13.9439L15.2592 13.2148ZM15.2562 13.2225L15.248 13.2435L17.1116 13.9694L17.1198 13.9483L15.2562 13.2225ZM15.2466 13.2472L15.2169 13.3242L17.0834 14.0427L17.1131 13.9657L15.2466 13.2472ZM15.2161 13.3263C15.1894 13.3963 15.1514 13.4967 15.1035 13.6261L16.9791 14.3204C17.0245 14.1979 17.06 14.1041 17.0842 14.0406L15.2161 13.3263ZM15.1035 13.6261C15.0077 13.8849 14.8722 14.2596 14.7079 14.7374L16.5992 15.3878C16.7581 14.9256 16.8884 14.5655 16.9791 14.3204L15.1035 13.6261ZM14.7079 14.7374C14.3794 15.6926 13.9348 17.0624 13.4616 18.7436L15.3868 19.2854C15.8483 17.6456 16.2813 16.3122 16.5992 15.3878L14.7079 14.7374ZM13.4616 18.7436C12.5175 22.0976 11.4483 26.7314 10.9723 31.8068L12.9635 31.9936C13.4249 27.0738 14.4641 22.5637 15.3868 19.2854L13.4616 18.7436ZM10.9723 31.8068C10.497 36.8744 10.6613 41.5458 10.9416 44.9428L12.9348 44.7784C12.6611 41.4606 12.5022 36.912 12.9635 31.9936L10.9723 31.8068ZM10.9416 44.9428C11.082 46.6449 11.2522 48.036 11.3885 49.0079L13.3692 48.7302C13.2374 47.7909 13.0717 46.4379 12.9348 44.7784L10.9416 44.9428ZM11.3885 49.0079C11.4567 49.4941 11.5165 49.876 11.5599 50.1401L13.5334 49.8157C13.4924 49.5662 13.435 49.1998 13.3692 48.7302L11.3885 49.0079ZM11.5599 50.1401C11.5816 50.2722 11.5993 50.3749 11.6118 50.4465L13.5817 50.1008C13.5704 50.036 13.5539 49.9405 13.5334 49.8157L11.5599 50.1401ZM11.6122 50.4488L11.6263 50.5277L13.5953 50.1773L13.5813 50.0985L11.6122 50.4488ZM11.627 50.5316L11.6309 50.5532L13.5986 50.195L13.5946 50.1734L11.627 50.5316ZM11.6313 50.5555L11.633 50.5645L13.5998 50.2017L13.5982 50.1927L11.6313 50.5555ZM12.7654 51.372L12.7685 51.3715L12.4706 49.3938L12.4674 49.3943L12.7654 51.372ZM11.6259 50.4954C11.6312 50.5419 11.6379 50.5885 11.6459 50.6351L13.6168 50.2948C13.6153 50.2864 13.6141 50.2781 13.6132 50.2699L11.6259 50.4954ZM11.6459 50.6351C11.8725 51.9472 13.1198 52.8272 14.4319 52.6006L14.0916 50.6298C13.868 50.6684 13.6554 50.5184 13.6168 50.2948L11.6459 50.6351ZM14.4319 52.6006C15.744 52.374 16.624 51.1267 16.3974 49.8146L14.4266 50.1549C14.4652 50.3786 14.3152 50.5912 14.0916 50.6298L14.4319 52.6006ZM16.3974 49.8146C16.3858 49.7476 16.3715 49.6816 16.3547 49.6167L14.419 50.1199C14.422 50.1313 14.4245 50.1429 14.4266 50.1549L16.3974 49.8146ZM15.5551 50.854L15.559 50.8534L15.2225 48.8819L15.2186 48.8826L15.5551 50.854ZM16.3742 49.6866L16.3737 49.6838L14.4067 50.0459L14.4072 50.0487L16.3742 49.6866ZM16.3741 49.6858L16.3714 49.6712L14.4037 50.0293L14.4064 50.0439L16.3741 49.6858ZM16.3721 49.6751L16.3606 49.6107L14.3916 49.961L14.403 50.0254L16.3721 49.6751ZM16.361 49.6129C16.3514 49.5579 16.3367 49.4724 16.3178 49.3579L14.3443 49.6824C14.3644 49.8041 14.3803 49.8968 14.3912 49.9587L16.361 49.6129ZM16.3178 49.3579C16.2802 49.129 16.2262 48.7847 16.1636 48.3383L14.183 48.616C14.2479 49.0789 14.3043 49.4388 14.3443 49.6824L16.3178 49.3579ZM16.1636 48.3383C16.0384 47.4451 15.879 46.1458 15.7471 44.5464L13.7538 44.7108C13.8893 46.3528 14.0532 47.6902 14.183 48.616L16.1636 48.3383ZM15.7471 44.5464C15.4826 41.3405 15.3315 36.9651 15.773 32.2571L13.7817 32.0703C13.3262 36.9275 13.4828 41.4257 13.7538 44.7108L15.7471 44.5464ZM15.773 32.2571C16.2138 27.557 17.2104 23.2214 18.103 20.0499L16.1779 19.5081C15.2639 22.7552 14.2372 27.2145 13.7817 32.0703L15.773 32.2571ZM18.103 20.0499C18.5482 18.4684 18.9646 17.1864 19.2676 16.3055L17.3763 15.6551C17.0627 16.5668 16.6346 17.8852 16.1779 19.5081L18.103 20.0499ZM19.2676 16.3055C19.419 15.8653 19.5418 15.5259 19.6254 15.3001L17.7498 14.6057C17.6611 14.8452 17.533 15.1993 17.3763 15.6551L19.2676 16.3055ZM19.6254 15.3001C19.6394 15.2624 19.6522 15.2279 19.6639 15.1966L17.7908 14.4955C17.7783 14.529 17.7646 14.5658 17.7498 14.6058L19.6254 15.3001Z" fill="#FFFADD" mask="url(#path-7-inside-2_254_207)"/>
<mask id="path-9-inside-3_254_207" fill="white">
<path fill-rule="evenodd" clip-rule="evenodd" d="M66.633 6.59303C67.4057 6.49275 67.9509 5.78502 67.8506 5.01228C67.7503 4.23954 67.0426 3.6944 66.2698 3.79468C66.1781 3.80659 66.0896 3.82704 66.0051 3.85514C65.9891 3.85767 65.9723 3.86038 65.9545 3.86328C65.8073 3.88728 65.5966 3.9241 65.3286 3.97724C64.7926 4.0835 64.0267 4.25512 63.0811 4.52006C61.1909 5.04964 58.5757 5.95401 55.6403 7.45896C49.7631 10.4721 42.5982 15.8966 37.4258 25.5186C32.2638 35.1212 30.7878 46.3207 30.5767 55.0328C30.4707 59.4033 30.6825 63.1819 30.9211 65.8707C31.0404 67.2157 31.1666 68.2898 31.2635 69.031C31.312 69.4016 31.3531 69.6891 31.3825 69.8858C31.3971 69.9841 31.4089 70.0598 31.4171 70.1118L31.4223 70.1447L31.4267 70.1718L31.428 70.1804C31.4299 70.2024 31.4322 70.2244 31.4351 70.2465C31.5354 71.0193 32.2431 71.5644 33.0158 71.4641C33.7886 71.3639 34.3337 70.6561 34.2334 69.8834C34.2269 69.8328 34.2177 69.7832 34.2061 69.7347L34.2142 69.7334L34.2139 69.7314L34.2121 69.7205L34.2044 69.6718C34.1974 69.6275 34.1869 69.5598 34.1734 69.4695C34.1465 69.2889 34.1077 69.0182 34.0615 68.6652C33.9692 67.959 33.8474 66.9239 33.7319 65.6213C33.5006 63.0148 33.2948 59.3446 33.3976 55.1012C33.604 46.5853 35.0511 35.8959 39.9113 26.8546C44.7611 17.8327 51.4533 12.7766 56.9276 9.96999C59.668 8.56507 62.1021 7.72481 63.8424 7.23723C64.712 6.99359 65.4066 6.8385 65.8773 6.74518C66.1126 6.69854 66.2917 6.66737 66.4086 6.64831C66.467 6.63879 66.5099 6.63229 66.5364 6.62841L66.5637 6.62449L66.5671 6.62402C66.5669 6.62404 66.5668 6.62406 66.5636 6.60033C66.5866 6.59847 66.6098 6.59604 66.633 6.59303Z"/>
</mask>
<path fill-rule="evenodd" clip-rule="evenodd" d="M66.633 6.59303C67.4057 6.49275 67.9509 5.78502 67.8506 5.01228C67.7503 4.23954 67.0426 3.6944 66.2698 3.79468C66.1781 3.80659 66.0896 3.82704 66.0051 3.85514C65.9891 3.85767 65.9723 3.86038 65.9545 3.86328C65.8073 3.88728 65.5966 3.9241 65.3286 3.97724C64.7926 4.0835 64.0267 4.25512 63.0811 4.52006C61.1909 5.04964 58.5757 5.95401 55.6403 7.45896C49.7631 10.4721 42.5982 15.8966 37.4258 25.5186C32.2638 35.1212 30.7878 46.3207 30.5767 55.0328C30.4707 59.4033 30.6825 63.1819 30.9211 65.8707C31.0404 67.2157 31.1666 68.2898 31.2635 69.031C31.312 69.4016 31.3531 69.6891 31.3825 69.8858C31.3971 69.9841 31.4089 70.0598 31.4171 70.1118L31.4223 70.1447L31.4267 70.1718L31.428 70.1804C31.4299 70.2024 31.4322 70.2244 31.4351 70.2465C31.5354 71.0193 32.2431 71.5644 33.0158 71.4641C33.7886 71.3639 34.3337 70.6561 34.2334 69.8834C34.2269 69.8328 34.2177 69.7832 34.2061 69.7347L34.2142 69.7334L34.2139 69.7314L34.2121 69.7205L34.2044 69.6718C34.1974 69.6275 34.1869 69.5598 34.1734 69.4695C34.1465 69.2889 34.1077 69.0182 34.0615 68.6652C33.9692 67.959 33.8474 66.9239 33.7319 65.6213C33.5006 63.0148 33.2948 59.3446 33.3976 55.1012C33.604 46.5853 35.0511 35.8959 39.9113 26.8546C44.7611 17.8327 51.4533 12.7766 56.9276 9.96999C59.668 8.56507 62.1021 7.72481 63.8424 7.23723C64.712 6.99359 65.4066 6.8385 65.8773 6.74518C66.1126 6.69854 66.2917 6.66737 66.4086 6.64831C66.467 6.63879 66.5099 6.63229 66.5364 6.62841L66.5637 6.62449L66.5671 6.62402C66.5669 6.62404 66.5668 6.62406 66.5636 6.60033C66.5866 6.59847 66.6098 6.59604 66.633 6.59303Z" fill="#FFFADD"/>
<path d="M66.0051 3.85514L66.1621 4.84273L66.2428 4.8299L66.3203 4.80414L66.0051 3.85514ZM65.9545 3.86328L65.7936 2.87631L65.7936 2.87631L65.9545 3.86328ZM65.3286 3.97724L65.1341 2.99633L65.1341 2.99633L65.3286 3.97724ZM63.0811 4.52006L63.3509 5.48298L63.3509 5.48298L63.0811 4.52006ZM55.6403 7.45896L55.1841 6.56909L55.1841 6.56909L55.6403 7.45896ZM37.4258 25.5186L38.3066 25.992L38.3066 25.992L37.4258 25.5186ZM30.5767 55.0328L29.5769 55.0086L29.5769 55.0086L30.5767 55.0328ZM30.9211 65.8707L31.9172 65.7823L31.9172 65.7823L30.9211 65.8707ZM31.2635 69.031L32.2551 68.9013L32.2551 68.9013L31.2635 69.031ZM31.3825 69.8858L30.3934 70.0333L30.3934 70.0333L31.3825 69.8858ZM31.4171 70.1118L30.4293 70.2677L30.4294 70.2686L31.4171 70.1118ZM31.4223 70.1447L30.4347 70.3015L30.435 70.3035L31.4223 70.1447ZM31.4267 70.1718L30.4393 70.3307L30.4397 70.3327L31.4267 70.1718ZM31.428 70.1804L32.4246 70.0978L32.4214 70.0585L32.415 70.0195L31.428 70.1804ZM34.2061 69.7347L34.0518 68.7467L32.9813 68.9139L33.2336 69.9676L34.2061 69.7347ZM34.2142 69.7334L34.3685 70.7215L35.3646 70.5659L35.201 69.5711L34.2142 69.7334ZM34.2139 69.7314L33.2269 69.8922L33.2272 69.8937L34.2139 69.7314ZM34.2121 69.7205L33.2246 69.8782L33.2251 69.8813L34.2121 69.7205ZM34.2044 69.6718L33.2166 69.8277L33.2169 69.8295L34.2044 69.6718ZM34.1734 69.4695L35.1624 69.3219L35.1624 69.3219L34.1734 69.4695ZM34.0615 68.6652L35.0531 68.5355L35.0531 68.5355L34.0615 68.6652ZM33.7319 65.6213L32.7358 65.7096L32.7358 65.7096L33.7319 65.6213ZM33.3976 55.1012L32.3979 55.0769L33.3976 55.1012ZM39.9113 26.8546L39.0305 26.3812L39.0305 26.3812L39.9113 26.8546ZM56.9276 9.96999L57.3839 10.8599L57.3839 10.8599L56.9276 9.96999ZM63.8424 7.23723L64.1122 8.20015L64.1122 8.20015L63.8424 7.23723ZM65.8773 6.74518L65.6828 5.76427L65.6828 5.76427L65.8773 6.74518ZM66.4086 6.64831L66.5695 7.63528L66.5695 7.63528L66.4086 6.64831ZM66.5364 6.62841L66.3945 5.63851L66.3913 5.63899L66.5364 6.62841ZM66.5637 6.62449L66.4264 5.63395L66.4219 5.6346L66.5637 6.62449ZM66.5671 6.62402L66.7044 7.61455L66.4384 5.63234L66.5671 6.62402ZM66.5636 6.60033L66.4833 5.60355L65.4296 5.68843L65.5728 6.73581L66.5636 6.60033ZM66.8589 5.14097C66.8881 5.36602 66.7293 5.57214 66.5043 5.60134L66.7617 7.58471C68.0821 7.41335 69.0136 6.20402 68.8423 4.88359L66.8589 5.14097ZM66.3985 4.78637C66.6236 4.75716 66.8297 4.91593 66.8589 5.14097L68.8423 4.88359C68.6709 3.56315 67.4616 2.63164 66.1412 2.803L66.3985 4.78637ZM66.3203 4.80414C66.3446 4.7961 66.3706 4.79 66.3985 4.78637L66.1412 2.803C65.9857 2.82317 65.8347 2.85798 65.6898 2.90614L66.3203 4.80414ZM65.848 2.86755C65.8308 2.87028 65.8127 2.8732 65.7936 2.87631L66.1154 4.85025C66.1319 4.84756 66.1475 4.84506 66.1621 4.84273L65.848 2.86755ZM65.7936 2.87631C65.6357 2.90206 65.4138 2.94089 65.1341 2.99633L65.523 4.95815C65.7795 4.90732 65.979 4.87249 66.1154 4.85025L65.7936 2.87631ZM65.1341 2.99633C64.575 3.10717 63.7839 3.28465 62.8113 3.55714L63.3509 5.48298C64.2696 5.22559 65.0102 5.05982 65.523 4.95815L65.1341 2.99633ZM62.8113 3.55714C60.868 4.10161 58.1886 5.02869 55.1841 6.56909L56.0965 8.34882C58.9628 6.87932 61.5138 5.99768 63.3509 5.48298L62.8113 3.55714ZM55.1841 6.56909C49.1641 9.65542 41.8317 15.2105 36.545 25.0451L38.3066 25.992C43.3647 16.5828 50.362 11.2888 56.0965 8.34882L55.1841 6.56909ZM36.545 25.0451C31.2761 34.8467 29.7898 46.2269 29.5769 55.0086L31.5764 55.057C31.7858 46.4145 33.2516 35.3957 38.3066 25.992L36.545 25.0451ZM29.5769 55.0086C29.4699 59.4242 29.6839 63.2411 29.925 65.959L31.9172 65.7823C31.6812 63.1227 31.4715 59.3825 31.5764 55.057L29.5769 55.0086ZM29.925 65.959C30.0457 67.3191 30.1734 68.407 30.272 69.1606L32.2551 68.9013C32.1598 68.1726 32.0352 67.1123 31.9172 65.7823L29.925 65.959ZM30.272 69.1606C30.3212 69.5375 30.3632 69.831 30.3934 70.0333L32.3715 69.7383C32.343 69.5473 32.3027 69.2657 32.2551 68.9013L30.272 69.1606ZM30.3934 70.0333C30.4085 70.1345 30.4207 70.213 30.4293 70.2677L32.4048 69.9558C32.3971 69.9066 32.3858 69.8338 32.3715 69.7383L30.3934 70.0333ZM30.4294 70.2686L30.4347 70.3015L32.4099 69.9878L32.4047 69.9549L30.4294 70.2686ZM30.435 70.3035L30.4393 70.3307L32.414 70.013L32.4096 69.9858L30.435 70.3035ZM30.4397 70.3327L30.4411 70.3413L32.415 70.0195L32.4136 70.011L30.4397 70.3327ZM30.4315 70.263C30.4346 70.3004 30.4385 70.3378 30.4434 70.3752L32.4268 70.1178C32.4259 70.1111 32.4252 70.1044 32.4246 70.0978L30.4315 70.263ZM30.4434 70.3752C30.6148 71.6957 31.8241 72.6272 33.1445 72.4558L32.8871 70.4725C32.6621 70.5017 32.456 70.3429 32.4268 70.1178L30.4434 70.3752ZM33.1445 72.4558C34.465 72.2845 35.3965 71.0751 35.2251 69.7547L33.2417 70.0121C33.2709 70.2371 33.1122 70.4432 32.8871 70.4725L33.1445 72.4558ZM35.2251 69.7547C35.214 69.669 35.1984 69.5846 35.1786 69.5019L33.2336 69.9676C33.237 69.9819 33.2397 69.9967 33.2417 70.0121L35.2251 69.7547ZM34.3604 70.7227L34.3685 70.7215L34.06 68.7454L34.0518 68.7467L34.3604 70.7227ZM35.201 69.5711L35.2006 69.5691L33.2272 69.8937L33.2275 69.8958L35.201 69.5711ZM35.2009 69.5706L35.1991 69.5597L33.2251 69.8813L33.2269 69.8922L35.2009 69.5706ZM35.1996 69.5628L35.1919 69.5141L33.2169 69.8295L33.2246 69.8782L35.1996 69.5628ZM35.1921 69.5159C35.1856 69.4744 35.1755 69.4094 35.1624 69.3219L33.1843 69.617C33.1982 69.7102 33.2092 69.7807 33.2166 69.8277L35.1921 69.5159ZM35.1624 69.3219C35.1364 69.147 35.0984 68.8823 35.0531 68.5355L33.07 68.7948C33.1169 69.1541 33.1565 69.4307 33.1843 69.617L35.1624 69.3219ZM35.0531 68.5355C34.9624 67.8418 34.8422 66.8204 34.7279 65.5329L32.7358 65.7096C32.8527 67.0273 32.976 68.0762 33.07 68.7948L35.0531 68.5355ZM34.7279 65.5329C34.4993 62.9556 34.2956 59.3238 34.3973 55.1254L32.3979 55.0769C32.294 59.3654 32.5019 63.074 32.7358 65.7096L34.7279 65.5329ZM34.3973 55.1254C34.602 46.679 36.0388 36.1704 40.7921 27.3281L39.0305 26.3812C34.0633 35.6213 32.606 46.4915 32.3979 55.0769L34.3973 55.1254ZM40.7921 27.3281C45.5276 18.5188 52.0524 13.5932 57.3839 10.8599L56.4714 9.08012C50.8543 11.9599 43.9946 17.1466 39.0305 26.3812L40.7921 27.3281ZM57.3839 10.8599C60.055 9.49039 62.4251 8.67284 64.1122 8.20015L63.5726 6.27431C61.7792 6.77678 59.2809 7.63976 56.4714 9.08012L57.3839 10.8599ZM64.1122 8.20015C64.9548 7.96406 65.6242 7.81482 66.0718 7.72609L65.6828 5.76427C65.189 5.86217 64.4691 6.02312 63.5726 6.27431L64.1122 8.20015ZM66.0718 7.72609C66.2954 7.68175 66.4634 7.65258 66.5695 7.63528L66.2477 5.66134C66.1201 5.68215 65.9297 5.71533 65.6828 5.76427L66.0718 7.72609ZM66.5695 7.63528C66.6226 7.62663 66.6602 7.62095 66.6815 7.61782L66.3913 5.63899C66.3596 5.64363 66.3115 5.65094 66.2477 5.66134L66.5695 7.63528ZM66.6782 7.6183L66.7056 7.61438L66.4219 5.6346L66.3945 5.63852L66.6782 7.6183ZM66.701 7.61502L66.7044 7.61455L66.4298 5.63349L66.4264 5.63396L66.701 7.61502ZM66.4384 5.63234C66.4166 5.63516 66.7091 5.57654 67.0154 5.73015C67.294 5.86991 67.4173 6.0922 67.4527 6.15963C67.4962 6.24273 67.5178 6.31308 67.5246 6.33587C67.5339 6.36669 67.5397 6.39148 67.5424 6.40371C67.548 6.42837 67.5513 6.4477 67.5522 6.45268C67.5535 6.46035 67.5544 6.46621 67.5548 6.46858C67.5558 6.47543 67.5561 6.47782 67.5543 6.46485L65.5728 6.73581C65.5743 6.74657 65.5762 6.76082 65.5782 6.77359C65.5788 6.77744 65.5799 6.7844 65.5813 6.7929C65.5823 6.79872 65.5858 6.8186 65.5914 6.84362C65.5942 6.85604 65.6 6.88096 65.6094 6.91188C65.6162 6.93477 65.6378 7.00519 65.6814 7.08834C65.7167 7.15581 65.8401 7.37812 66.1187 7.51789C66.425 7.67151 66.7175 7.61288 66.6958 7.61571L66.4384 5.63234ZM66.5043 5.60134C66.4972 5.60226 66.4902 5.603 66.4833 5.60355L66.6438 7.5971C66.6831 7.59394 66.7224 7.58981 66.7617 7.58471L66.5043 5.60134Z" fill="#FFFADD" mask="url(#path-9-inside-3_254_207)"/>
</svg>
